# xmcd
#
# Track frame offsets:
#	150
#	30602
#	49212
#	76502
#	101707
#	115765
#	133140
#	151657
#	168445
#	190220
#	235917
#
# Disc length: 3481 seconds
# Revision: 0
# Processed by: cddbd v1.5.2PL0 Copyright (c) Steve Scherf et al.
# Submitted via: dBpowerAMP V12.0
#
DISCID=820d970b
DTITLE=Yul Anderson - Too Close To Love
DYEAR=1997
DGENRE=
TTITLE0=Too close to love
TTITLE1=I remember
TTITLE2=Say you need me
TTITLE3=And Mary hears the wind
TTITLE4=Sweet Baby Brown
TTITLE5=Nighttrance
TTITLE6=Cry to the universe
TTITLE7=Too tired to sleep
TTITLE8=Fading moon
TTITLE9=Hear my train coming
TTITLE10=One minute silence for Jimi
EXTD=
EXTT0=
EXTT1=
EXTT2=
EXTT3=
EXTT4=
EXTT5=
EXTT6=
EXTT7=
EXTT8=
EXTT9=
EXTT10=
PLAYORDER=
